<svg id="Layer_1" data-name="Layer 1" xmlns="http://www.w3.org/2000/svg" viewBox="0 0 675.87 191.61"><title>BookMyShow logo - Brandlogos.net</title><path d="M471.92,344.35l-11.11-18.7L440.93,335l-11.11-18.7-19.87,9.34-11.12-18.7-19.87,9.35-11.12-18.7L348,306.9l-11.13-18.7L317,297.53,274.82,432.92l51.13,15.43a27.14,27.14,0,0,1,53,7.91v.54a20.89,20.89,0,0,1-.91,7.28l52,15.72,41.92-135.46" transform="translate(-46.07 -288.19)" style="fill:#c4242b"/><path d="M318.66,421.74a5.43,5.43,0,0,1-4.55-5.43V350a5.5,5.5,0,0,1,5.49-5.52h48.55a22.73,22.73,0,0,1,3.76.33,21.54,21.54,0,0,1,18,21.16v50.31a5.43,5.43,0,0,1-1.67,3.93,5.62,5.62,0,0,1-4.93,1.5,5.42,5.42,0,0,1-4.54-5.43V366a10.49,10.49,0,0,0-10.53-10.45H357.59v60.76a5.56,5.56,0,0,1-6.62,5.43,5.43,5.43,0,0,1-4.54-5.43V355.55H325.26v60.77a5.42,5.42,0,0,1-1.66,3.93,5.6,5.6,0,0,1-4.94,1.5m80.59,28.88a5.54,5.54,0,0,1-2.95-9.36,5.62,5.62,0,0,1,4-1.59,10.5,10.5,0,0,0,10.12-7.47l5.76-18.95L397.3,351A5.56,5.56,0,0,1,401,344.1h0a5.71,5.71,0,0,1,6.9,3.64l14,46.41,14.15-46.38a5.6,5.6,0,0,1,6.46-3.77l.39.08a5.59,5.59,0,0,1,3.78,6.94v0L427.3,414.9l-6.13,20.44a22.22,22.22,0,0,1-7.87,11.08,22,22,0,0,1-13,4.29,5.45,5.45,0,0,1-1-.09M57.69,409.67h11a11,11,0,0,0,11-10.88V366.92a10.9,10.9,0,0,0-9.11-10.71,11.55,11.55,0,0,0-1.9-.17h-11l0,53.61ZM50.81,421a5.63,5.63,0,0,1-4.74-5.65V316.45a5.67,5.67,0,0,1,1.68-4.08,5.85,5.85,0,0,1,9.93,4.09V344.6h11a22.4,22.4,0,0,1,22.61,22.18s0,.1,0,.15V398.8a22.5,22.5,0,0,1-22.61,22.34H51.89a5.2,5.2,0,0,1-1.08-.08Zm79.86-65.48a11.38,11.38,0,0,0-1.89-.15,10.82,10.82,0,0,0-11,10.87v33.2a10.88,10.88,0,0,0,10.88,10.87h.12a11,11,0,0,0,11-10.87v-33.2a10.91,10.91,0,0,0-9.11-10.71m-5.87,65.92a22.36,22.36,0,0,1-18.63-22v-33.2a22,22,0,0,1,6.6-15.81,22.63,22.63,0,0,1,16-6.52,22.4,22.4,0,0,1,22.61,22.18q0,.08,0,.16v33.2a22.07,22.07,0,0,1-6.67,15.82,23,23,0,0,1-19.91,6.19m66-65.92a11.31,11.31,0,0,0-1.89-.15,10.81,10.81,0,0,0-11,10.87v33.2a10.87,10.87,0,0,0,10.87,10.87h.12a11,11,0,0,0,7.74-3.16,10.74,10.74,0,0,0,3.26-7.71v-33.2a10.91,10.91,0,0,0-9.11-10.71m-5.86,65.92a22.37,22.37,0,0,1-18.63-22v-33.2a22.61,22.61,0,0,1,45.21,0v33.2a22,22,0,0,1-6.67,15.82,22.63,22.63,0,0,1-15.93,6.52,23.6,23.6,0,0,1-4-.33m46.2.24a5.64,5.64,0,0,1-4.73-5.64V316.45a5.66,5.66,0,0,1,5.58-5.74h.22a5.74,5.74,0,0,1,5.8,5.68v59l26.74-29.58a5.9,5.9,0,0,1,5.36-1.75,6.27,6.27,0,0,1,2.92,1.35,5.66,5.66,0,0,1,.4,8.07l-20.13,22.17,20.91,37.73a5.43,5.43,0,0,1,.51,4.26,5.63,5.63,0,0,1-2.85,3.41,5.95,5.95,0,0,1-7.9-2.11l-18.81-34.12-7.16,7.8v23.45a5.68,5.68,0,0,1-1.73,4.09,5.83,5.83,0,0,1-5.14,1.55m256.06-.06a21.41,21.41,0,0,1-15.09-10.43,5.77,5.77,0,0,1-.52-4.38,5.69,5.69,0,0,1,2.66-3.46,5.94,5.94,0,0,1,3.89-.65,5.77,5.77,0,0,1,4,2.76,9.74,9.74,0,0,0,6.89,4.73,10.35,10.35,0,0,0,8.59-2.43,9.79,9.79,0,0,0-1.11-15.24l-15.63-11A20.84,20.84,0,0,1,472,366.08a20.33,20.33,0,0,1,6.8-16.56A21.2,21.2,0,0,1,496,344.17h0a21.13,21.13,0,0,1,15,10.18,5.78,5.78,0,0,1-2.14,7.83,5.83,5.83,0,0,1-3.88.64,5.75,5.75,0,0,1-4-2.75,9.3,9.3,0,0,0-6.59-4.43,9.15,9.15,0,0,0-7.86,2.28,9.35,9.35,0,0,0-2.94,7.39,9,9,0,0,0,4,6.88L503.24,383a21,21,0,0,1,9.06,16.17,20.4,20.4,0,0,1-7,17,21.86,21.86,0,0,1-17.76,5.5l-.42-.06m44.91.16a5.77,5.77,0,0,1-4.81-5.66V316.54a5.69,5.69,0,0,1,1.74-4.1,5.86,5.86,0,0,1,5.13-1.54,5.64,5.64,0,0,1,4.73,5.64v28.13h11a22.68,22.68,0,0,1,4,.35,22.34,22.34,0,0,1,18.63,22v49.14a5.8,5.8,0,0,1-11.61,0V367A10.85,10.85,0,0,0,550,356.14H538.86v60a5.71,5.71,0,0,1-5.68,5.74h-.12a6,6,0,0,1-1-.08m79.77-66.18a11,11,0,0,0-9.7,3,10.74,10.74,0,0,0-3.2,7.7v33.22a10.85,10.85,0,0,0,9,10.68,11,11,0,0,0,9.71-3,10.68,10.68,0,0,0,3.26-7.7V366.34a10.89,10.89,0,0,0-9.1-10.71m-5.87,65.91a22.34,22.34,0,0,1-18.63-22V366.34A22.49,22.49,0,0,1,609.93,344a22,22,0,0,1,3.89.33,22.4,22.4,0,0,1,18.7,22v33.21a22,22,0,0,1-6.67,15.81,22.61,22.61,0,0,1-19.9,6.18m115.81-70.49a5.48,5.48,0,0,0-.59-4.19,6,6,0,0,0-3.77-2.63,5.75,5.75,0,0,0-6.65,4.2q-5.52,22.05-11.18,44.07l-.11.43-.1-.43c-4.77-18.92-11.14-43.79-11.21-44.06a5.43,5.43,0,0,0-4.46-4.23,5.77,5.77,0,0,0-6.54,4.22c-.08.23-6.3,25.15-11.19,44.07l-.11.43-.11-.43c-4.76-18.92-11.14-43.83-11.2-44.07a5.7,5.7,0,0,0-6.84-4.13,5.62,5.62,0,0,0-4.17,6.75l16.82,66.44a5.8,5.8,0,0,0,5.5,4.28,5.45,5.45,0,0,0,5.5-4.29c.06-.25,6.44-25.17,11.21-44.1l.1-.42.12.42c4.93,19.11,11.17,44.1,11.18,44.12a5.8,5.8,0,0,0,5.5,4.28,5.46,5.46,0,0,0,5.5-4.3l16.81-66.42" transform="translate(-46.07 -288.19)" style="fill:#333545"/></svg>