<svg id="Layer_1" data-name="Layer 1" xmlns="http://www.w3.org/2000/svg" viewBox="0 0 154.35 38.41"><title>Paytm Insider logo - Brandlogos.net</title><path d="M445.9,252.77a6,6,0,0,0-.05,8.57l4,4,8.62-8.62-4-4a6.18,6.18,0,0,0-8.62,0" transform="translate(-327.12 -234.23)" style="fill:#e21167"/><path d="M471.1,252.77a6,6,0,0,1,.05,8.57l-4,4-8.62-8.62,4-4a6.18,6.18,0,0,1,8.62,0" transform="translate(-327.12 -234.23)" style="fill:#34b6e6"/><path d="M449.88,265.37l6.42,6.42a3.28,3.28,0,0,0,4.36,0l6.47-6.47-8.62-8.62Z" transform="translate(-327.12 -234.23)" style="fill:#0d182f"/><path d="M472.84,251a8.61,8.61,0,0,0-5.27-2.5h0a.35.35,0,0,1-.21-.59l3.78-3.78a6,6,0,0,1,8.57.05l0,0a6,6,0,0,1,.08,8.55l-3.78,3.78a.35.35,0,0,1-.59-.21v0a8.61,8.61,0,0,0-2.5-5.27" transform="translate(-327.12 -234.23)" style="fill:#e21167"/><path d="M380.54,238.7a3.57,3.57,0,0,0-3.37-2.12h0a3.77,3.77,0,0,0-2.57,1,3.79,3.79,0,0,0-2.57-1h0a3.82,3.82,0,0,0-2.33.77v-.24a.5.5,0,0,0-.52-.43h-2.39a.5.5,0,0,0-.53.47v11.52a.5.5,0,0,0,.53.47h2.39a.51.51,0,0,0,.52-.4v-8.27a.74.74,0,0,1,0-.08.83.83,0,0,1,.82-.71h.44a1,1,0,0,1,.5.17.75.75,0,0,1,.32.62v8.23a.5.5,0,0,0,.53.47h2.39a.51.51,0,0,0,.52-.45v-8.26a.76.76,0,0,1,.39-.66,1,1,0,0,1,.44-.13h.44a.82.82,0,0,1,.83.79v8.22a.5.5,0,0,0,.53.47h2.39a.5.5,0,0,0,.53-.47v-8.84a2.66,2.66,0,0,0-.18-1.12" transform="translate(-327.12 -234.23)" style="fill:#0d182f"/><path d="M364.38,236.63H363v-2h0a.46.46,0,0,0-.48-.43h-.09c-1.51.37-1.21,2.23-4,2.39h-.38a.49.49,0,0,0-.41.46v2.12a.5.5,0,0,0,.53.47h1.44v9a.5.5,0,0,0,.52.46h2.36a.5.5,0,0,0,.52-.46v-9h1.34a.5.5,0,0,0,.53-.47V237.1a.5.5,0,0,0-.53-.47" transform="translate(-327.12 -234.23)" style="fill:#0d182f"/><path d="M355.79,236.68H353.4a.5.5,0,0,0-.53.47v4.39a.53.53,0,0,1-.56.49h-1a.53.53,0,0,1-.56-.5v-4.38a.5.5,0,0,0-.53-.47h-2.39a.5.5,0,0,0-.53.47V242a3.21,3.21,0,0,0,3.52,3.13h1.59a.49.49,0,1,1,0,1h-3.53a.5.5,0,0,0-.53.47v2.12a.5.5,0,0,0,.53.47h3.9a3.21,3.21,0,0,0,3.52-3.13v-8.87a.5.5,0,0,0-.53-.47" transform="translate(-327.12 -234.23)" style="fill:#0d182f"/><path d="M332.9,236.7h-5.22a.49.49,0,0,0-.52.46v2.08h0v9.43a.48.48,0,0,0,.48.47h2.43a.5.5,0,0,0,.53-.47v-3.22h2.28a2.94,2.94,0,0,0,3.24-2.88v-3a2.94,2.94,0,0,0-3.24-2.89m-.21,3.89v1.31a.53.53,0,0,1-.56.5h-1.52v-2.62h1.52a.53.53,0,0,1,.56.5Z" transform="translate(-327.12 -234.23)" style="fill:#0d182f"/><path d="M342.21,236.75H338.9a.49.49,0,0,0-.53.44v2a.52.52,0,0,0,.56.47h3.15a.52.52,0,0,1,.47.45v.27a.5.5,0,0,1-.46.44h-1.56c-2.08,0-3.56,1.22-3.56,2.95v2.47c0,1.71,1.27,2.93,3.33,2.93h4.33A1.3,1.3,0,0,0,346,248v-8c0-2-1.13-3.18-3.84-3.18m-1.74,7.37h0a.52.52,0,0,1,.56-.46h1a.52.52,0,0,1,.56.47v1.81a.41.41,0,0,1,0,.08l0,.07a.56.56,0,0,1-.53.32h-1a.52.52,0,0,1-.56-.47v-.4h0v-1.07h0v-.33" transform="translate(-327.12 -234.23)" style="fill:#0d182f"/><rect y="17.37" width="5.2" height="20.46" style="fill:#0d182f"/><path d="M355,272.06h-5.2v-11.8c0-2.93-1.4-4.37-4.17-4.37s-4.74,2.43-4.74,5.77v10.39h-5.2V251.6h5.2v3.3a7.86,7.86,0,0,1,6.93-3.88c4.41,0,7.18,2.85,7.18,7.09Z" transform="translate(-327.12 -234.23)" style="fill:#0d182f"/><path d="M366.81,259.52c4.78,1,6.85,2.85,6.85,6.31a6.18,6.18,0,0,1-2.23,4.87,8.57,8.57,0,0,1-5.86,1.94,9.6,9.6,0,0,1-9.36-6.15l4.17-2.64c.95,2.68,2.76,4.41,5.28,4.41,1.69,0,3.22-.91,3.22-2.27s-1.24-2-4.37-2.64c-4.29-.83-7.13-2.93-7.13-6.39a5,5,0,0,1,2.23-4.33A9,9,0,0,1,365,251c4.33,0,6.76,1.65,8.46,5.16l-3.75,2.23c-.95-2.39-2.52-3.59-4.62-3.59s-3.09.62-3.09,1.82,1.61,2.27,4.83,2.89" transform="translate(-327.12 -234.23)" style="fill:#0d182f"/><rect x="48.4" y="17.37" width="5.2" height="20.46" style="fill:#0d182f"/><path d="M404.58,243.19v28.87h-5.2v-2.89a7.26,7.26,0,0,1-6.43,3.47,9.77,9.77,0,0,1-7.18-2.93,10.65,10.65,0,0,1-2.89-7.88,10.44,10.44,0,0,1,3-7.84,9.77,9.77,0,0,1,7.05-3q4.52,0,6.43,3.09V243.19ZM393.9,267.77a5.63,5.63,0,0,0,4.17-1.69,5.78,5.78,0,0,0,1.65-4.25,5.72,5.72,0,0,0-1.65-4.25,5.93,5.93,0,0,0-8.29,0,5.85,5.85,0,0,0-1.61,4.25,5.92,5.92,0,0,0,1.61,4.25,5.6,5.6,0,0,0,4.13,1.69" transform="translate(-327.12 -234.23)" style="fill:#0d182f"/><path d="M427.15,263.07H411.4a5.38,5.38,0,0,0,5.61,5.11c2.52,0,4.37-1.24,5.65-3.75l3.88,2.23a9.89,9.89,0,0,1-9.61,6,10.23,10.23,0,0,1-7.47-3,10.57,10.57,0,0,1-3.05-7.79,10.35,10.35,0,0,1,3.09-7.75,10.68,10.68,0,0,1,7.67-3.05,9.48,9.48,0,0,1,7.18,2.89,10.18,10.18,0,0,1,2.8,7.34Zm-15.76-3.8h11A5.06,5.06,0,0,0,417,255a6,6,0,0,0-5.61,4.29" transform="translate(-327.12 -234.23)" style="fill:#0d182f"/><path d="M440.81,256.18a4.54,4.54,0,0,0-1.69-.29c-3.09,0-5,2.47-5,6.06v10.11H429V251.6h5.2v3.26q1.92-3.84,5.69-3.84a5.61,5.61,0,0,1,1.77.25Z" transform="translate(-327.12 -234.23)" style="fill:#0d182f"/></svg>