<svg id="Layer_1" data-name="Layer 1" xmlns="http://www.w3.org/2000/svg" viewBox="0 0 498 115.73"><title>WhatsApp logo - Brandlogos.net</title><path d="M192.83,326.14a57.37,57.37,0,0,0-49.69,86L135,441.86l30.4-8a57.29,57.29,0,0,0,27.4,7h0a57.36,57.36,0,0,0,0-114.73Zm0,105h0a47.58,47.58,0,0,1-24.26-6.64l-1.74-1-18,4.73,4.81-17.59-1.13-1.8a47.66,47.66,0,1,1,40.38,22.33ZM219,395.49c-1.43-.72-8.48-4.18-9.79-4.66s-2.27-.72-3.22.72-3.7,4.66-4.54,5.62-1.67,1.08-3.1.36a39.17,39.17,0,0,1-11.52-7.11,43.09,43.09,0,0,1-8-9.93c-.83-1.43-.09-2.21.63-2.92s1.43-1.67,2.15-2.51a9.68,9.68,0,0,0,1.43-2.39,2.64,2.64,0,0,0-.12-2.51c-.36-.72-3.22-7.77-4.42-10.64s-2.34-2.42-3.22-2.46-1.79-.05-2.75-.05a5.26,5.26,0,0,0-3.82,1.79,16.07,16.07,0,0,0-5,12c0,7.05,5.14,13.87,5.85,14.82S179.64,401,194,407.2a82.63,82.63,0,0,0,8.17,3,19.65,19.65,0,0,0,9,.57c2.75-.41,8.48-3.47,9.67-6.81s1.19-6.21.83-6.81-1.31-1-2.75-1.67Zm101.45-.87h-.15l-9.51-38.35H299.3l-9.66,37.88h-.15l-8.81-37.88H268.44l14.73,55.66h12.39L304.83,374H305l9.43,37.89h12.16l15-55.66h-12l-9.12,38.35Zm58.45-19.53a10.83,10.83,0,0,0-4.48-3.35,18.89,18.89,0,0,0-7.29-1.2,14.48,14.48,0,0,0-6.39,1.6,12.8,12.8,0,0,0-5.38,5.11h-.23v-21H344v55.66h11.07V390.79q0-6.16,2-8.85t6.55-2.69q4,0,5.53,2.46t1.56,7.44v22.76h11.07V387.13a32.68,32.68,0,0,0-.66-6.82,13,13,0,0,0-2.3-5.22ZM424.45,403V382a9.65,9.65,0,0,0-1.64-5.89,11.19,11.19,0,0,0-4.2-3.47,18.84,18.84,0,0,0-5.69-1.68,45.28,45.28,0,0,0-6.15-.43,33.55,33.55,0,0,0-6.66.66,19,19,0,0,0-6,2.22,13.21,13.21,0,0,0-4.36,4.13,12.82,12.82,0,0,0-2,6.47h11.07a6.27,6.27,0,0,1,2.19-4.68,8.39,8.39,0,0,1,5.14-1.4,18.39,18.39,0,0,1,2.77.19,6.12,6.12,0,0,1,2.26.78,4.27,4.27,0,0,1,1.56,1.64,5.89,5.89,0,0,1,.58,2.84,3,3,0,0,1-1,2.61,7.42,7.42,0,0,1-3,1.36,28.41,28.41,0,0,1-4.29.7q-2.42.24-4.91.63a46.38,46.38,0,0,0-4.95,1.05,14,14,0,0,0-4.37,2,10.17,10.17,0,0,0-3.12,3.55,11.77,11.77,0,0,0-1.21,5.65,12.65,12.65,0,0,0,1.05,5.38,10.13,10.13,0,0,0,2.92,3.74,12.32,12.32,0,0,0,4.36,2.19,19.84,19.84,0,0,0,5.38.7,25.11,25.11,0,0,0,7.32-1.09,14.46,14.46,0,0,0,6.24-3.82,16.1,16.1,0,0,0,.78,3.9h11.22a9.4,9.4,0,0,1-1.09-3.74,41.41,41.41,0,0,1-.32-5.22Zm-11.07-6.63a20.85,20.85,0,0,1-.19,2.5,8.28,8.28,0,0,1-1.05,3.08,7.31,7.31,0,0,1-2.65,2.61,9.75,9.75,0,0,1-5.07,1.09,13.51,13.51,0,0,1-2.57-.24,6.23,6.23,0,0,1-2.18-.82,4.18,4.18,0,0,1-1.48-1.6,5.22,5.22,0,0,1-.55-2.49,5.42,5.42,0,0,1,.55-2.57,5,5,0,0,1,1.44-1.68,7.22,7.22,0,0,1,2.1-1.05,20.44,20.44,0,0,1,2.46-.62c.88-.15,1.77-.29,2.65-.39s1.73-.23,2.53-.39a18.09,18.09,0,0,0,2.26-.59,4.94,4.94,0,0,0,1.75-1v4.13Zm31.72-36.79H434v12.08h-6.7V379H434V402.8a10.31,10.31,0,0,0,1,4.91,7.24,7.24,0,0,0,2.77,2.89,11.41,11.41,0,0,0,4.06,1.36,32.6,32.6,0,0,0,4.87.35c1.1,0,2.21,0,3.36-.07a25.75,25.75,0,0,0,3.12-.32v-8.57a14.39,14.39,0,0,1-1.64.23q-.85.08-1.79.08c-1.87,0-3.12-.32-3.74-.94s-.93-1.87-.93-3.74V379h8.11v-7.4h-8.11V359.53Zm45.74,34.73a10,10,0,0,0-2.88-3.2,15.72,15.72,0,0,0-4.09-2.07,48.45,48.45,0,0,0-4.72-1.32c-1.56-.37-3.09-.7-4.6-1a36.51,36.51,0,0,1-4-1,8.39,8.39,0,0,1-2.84-1.52,3,3,0,0,1-1.09-2.42,3,3,0,0,1,.62-2,4.18,4.18,0,0,1,1.52-1.13,6.9,6.9,0,0,1,2-.51,19.3,19.3,0,0,1,2-.11,11.06,11.06,0,0,1,5.15,1.13c1.45.75,2.26,2.2,2.41,4.32h10.52a13.27,13.27,0,0,0-1.91-6.2,12.63,12.63,0,0,0-4-3.94,16.72,16.72,0,0,0-5.5-2.11,31.88,31.88,0,0,0-6.35-.62,34.92,34.92,0,0,0-6.39.58,17.58,17.58,0,0,0-5.61,2,11.21,11.21,0,0,0-4,3.94,12.11,12.11,0,0,0-1.52,6.39,8.59,8.59,0,0,0,1.1,4.49,9.44,9.44,0,0,0,2.88,3,16.13,16.13,0,0,0,4.1,1.95c1.53.5,3.1.93,4.71,1.29a65.44,65.44,0,0,1,9.24,2.5q3.31,1.25,3.31,3.74a4.07,4.07,0,0,1-.7,2.45,5.28,5.28,0,0,1-1.75,1.56,8.22,8.22,0,0,1-2.34.86,11.71,11.71,0,0,1-2.46.27,12.7,12.7,0,0,1-3.15-.39,8.21,8.21,0,0,1-2.69-1.21,6.49,6.49,0,0,1-1.91-2.11,6.11,6.11,0,0,1-.74-3.08H454.62a13.57,13.57,0,0,0,1.83,6.74,13.31,13.31,0,0,0,4.28,4.33,18.18,18.18,0,0,0,6,2.34,33.41,33.41,0,0,0,6.85.7,34.14,34.14,0,0,0,6.74-.66,17.05,17.05,0,0,0,5.88-2.3,12.75,12.75,0,0,0,4.17-4.32,12.89,12.89,0,0,0,1.6-6.67,9.35,9.35,0,0,0-1.09-4.71Zm22-38-21,55.66H504.1l4.36-12.4h20.81l4.2,12.4h12.71l-20.81-55.66H512.83Zm-1.17,34.15L518.91,370h.15l7,20.42H511.66Zm72.79-13.33a16.85,16.85,0,0,0-5.69-4.75,17.42,17.42,0,0,0-8.18-1.79,15.79,15.79,0,0,0-6.86,1.48,12.13,12.13,0,0,0-5.14,4.76h-.16v-5.15H547.9V426H559v-19.1h.15a13,13,0,0,0,5.19,4.48,15.67,15.67,0,0,0,6.9,1.52,16.67,16.67,0,0,0,7.75-1.72,16.41,16.41,0,0,0,5.53-4.6,20,20,0,0,0,3.32-6.62,28,28,0,0,0,1.09-7.8,31,31,0,0,0-1.09-8.23,20.2,20.2,0,0,0-3.36-6.9Zm-7.09,19.57a11.82,11.82,0,0,1-1.6,4.09,8.42,8.42,0,0,1-7.52,3.94,8.65,8.65,0,0,1-4.52-1.1,8.74,8.74,0,0,1-3-2.85,12.27,12.27,0,0,1-1.64-4.09,22.32,22.32,0,0,1-.5-4.75,25,25,0,0,1,.46-4.83,12.19,12.19,0,0,1,1.6-4.14,9,9,0,0,1,3-2.92,8.51,8.51,0,0,1,4.56-1.14,8.24,8.24,0,0,1,4.48,1.14,9.27,9.27,0,0,1,3,3,12.84,12.84,0,0,1,1.68,4.17,22.16,22.16,0,0,1,.5,4.76,24.1,24.1,0,0,1-.46,4.75ZM631.9,384a20.08,20.08,0,0,0-3.35-6.9,16.87,16.87,0,0,0-5.69-4.75,17.46,17.46,0,0,0-8.19-1.79,15.79,15.79,0,0,0-6.85,1.48,12.19,12.19,0,0,0-5.15,4.76h-.15v-5.15H592V426h11.07v-19.1h.16a13,13,0,0,0,5.18,4.48,15.7,15.7,0,0,0,6.9,1.52,16.7,16.7,0,0,0,7.75-1.72,16.39,16.39,0,0,0,5.53-4.6,19.77,19.77,0,0,0,3.31-6.62,27.61,27.61,0,0,0,1.09-7.8,30.54,30.54,0,0,0-1.09-8.23Zm-10.44,12.67a11.62,11.62,0,0,1-1.6,4.09,8.88,8.88,0,0,1-3,2.85,8.77,8.77,0,0,1-4.56,1.1,8.54,8.54,0,0,1-7.53-3.94,12.34,12.34,0,0,1-1.64-4.09,22.33,22.33,0,0,1-.51-4.75,25,25,0,0,1,.47-4.83,12.19,12.19,0,0,1,1.6-4.14,9.07,9.07,0,0,1,3-2.92,8.51,8.51,0,0,1,4.56-1.14,8.23,8.23,0,0,1,4.48,1.14,9.28,9.28,0,0,1,3,3,12.62,12.62,0,0,1,1.68,4.17,22.16,22.16,0,0,1,.51,4.76A24.1,24.1,0,0,1,621.46,396.64Z" transform="translate(-135 -326.14)" style="fill:#25d366"/></svg>