<svg width="44" height="44" viewBox="0 0 44 44" fill="none" xmlns="http://www.w3.org/2000/svg">
<path d="M27.5 15.125H16.5M27.5 20.625H16.5M22 31.625L16.5 26.125H19.25C20.7087 26.125 22.1076 25.5455 23.1391 24.5141C24.1705 23.4826 24.75 22.0837 24.75 20.625C24.75 19.1663 24.1705 17.7674 23.1391 16.7359C22.1076 15.7045 20.7087 15.125 19.25 15.125M38.5 22C38.5 24.1668 38.0732 26.3124 37.244 28.3143C36.4148 30.3161 35.1994 32.1351 33.6673 33.6673C32.1351 35.1994 30.3161 36.4148 28.3143 37.244C26.3124 38.0732 24.1668 38.5 22 38.5C19.8332 38.5 17.6876 38.0732 15.6857 37.244C13.6839 36.4148 11.8649 35.1994 10.3327 33.6673C8.80057 32.1351 7.58519 30.3161 6.75599 28.3143C5.92678 26.3124 5.5 24.1668 5.5 22C5.5 17.6239 7.23839 13.4271 10.3327 10.3327C13.4271 7.23839 17.6239 5.5 22 5.5C26.3761 5.5 30.5729 7.23839 33.6673 10.3327C36.7616 13.4271 38.5 17.6239 38.5 22Z" stroke="#B64F1D" stroke-width="2.3" stroke-linecap="round" stroke-linejoin="round"/>
<circle cx="22" cy="22" r="16.85" stroke="#D7A084" stroke-width="2.3"/>
</svg>
