<svg width="44" height="44" viewBox="0 0 44 44" fill="none" xmlns="http://www.w3.org/2000/svg">
<path d="M16.4999 20.1666C18.525 20.1666 20.1666 18.525 20.1666 16.4999C20.1666 14.4749 18.525 12.8333 16.4999 12.8333C14.4749 12.8333 12.8333 14.4749 12.8333 16.4999C12.8333 18.525 14.4749 20.1666 16.4999 20.1666Z" stroke="#B64F1D" stroke-width="2.3"/>
<path d="M23.8333 27.4999C23.8333 29.5258 23.8333 31.1666 16.5 31.1666C9.16663 31.1666 9.16663 29.5258 9.16663 27.4999C9.16663 25.4741 12.4483 23.8333 16.5 23.8333C20.5516 23.8333 23.8333 25.4741 23.8333 27.4999Z" stroke="#B64F1D" stroke-width="2.3"/>
<path opacity="0.5" d="M3.66663 22C3.66663 15.0865 3.66663 11.6288 5.81529 9.48198C7.96396 7.33515 11.4198 7.33331 18.3333 7.33331H25.6666C32.5801 7.33331 36.0378 7.33331 38.1846 9.48198C40.3315 11.6306 40.3333 15.0865 40.3333 22C40.3333 28.9135 40.3333 32.3711 38.1846 34.518C36.036 36.6648 32.5801 36.6666 25.6666 36.6666H18.3333C11.4198 36.6666 7.96213 36.6666 5.81529 34.518C3.66846 32.3693 3.66663 28.9135 3.66663 22Z" stroke="#B64F1D" stroke-width="2.3"/>
<path d="M34.8333 22H27.5M34.8333 16.5H25.6666" stroke="#B64F1D" stroke-width="2.3" stroke-linecap="round"/>
<path opacity="0.9" d="M34.8333 27.5H29.3333" stroke="#B64F1D" stroke-width="2.3" stroke-linecap="round"/>
</svg>
