<svg width="45" height="44" viewBox="0 0 45 44" fill="none" xmlns="http://www.w3.org/2000/svg">
<path d="M22.5 29.3334C25.5376 29.3334 28 26.8709 28 23.8334C28 20.7958 25.5376 18.3334 22.5 18.3334C19.4624 18.3334 17 20.7958 17 23.8334C17 26.8709 19.4624 29.3334 22.5 29.3334Z" stroke="#B64F1D" stroke-width="2.3"/>
<path opacity="0.5" d="M18.4263 38.5001H26.5736C32.2955 38.5001 35.1573 38.5001 37.2125 37.1526C38.0995 36.5717 38.8633 35.8216 39.4601 34.9453C40.8333 32.9286 40.8333 30.1181 40.8333 24.5008C40.8333 18.8834 40.8333 16.0729 39.4601 14.0563C38.8633 13.1799 38.0995 12.4298 37.2125 11.8489C35.8925 10.9818 34.2388 10.6719 31.707 10.5619C30.4988 10.5619 29.4593 9.66359 29.2228 8.49942C29.0421 7.64668 28.5725 6.88249 27.8933 6.336C27.2142 5.78951 26.3673 5.49423 25.4956 5.50009H19.5043C17.693 5.50009 16.1328 6.75592 15.7771 8.49942C15.5406 9.66359 14.5011 10.5619 13.293 10.5619C10.763 10.6719 9.10929 10.9836 7.78746 11.8489C6.90111 12.43 6.13796 13.1801 5.54163 14.0563C4.16663 16.0729 4.16663 18.8816 4.16663 24.5008C4.16663 30.1199 4.16663 32.9268 5.53979 34.9453C6.13379 35.8179 6.89646 36.5678 7.78746 37.1526C9.84263 38.5001 12.7045 38.5001 18.4263 38.5001Z" stroke="#B64F1D" stroke-width="2.3"/>
<path d="M35.3333 18.3334H33.5" stroke="#B64F1D" stroke-width="2.3" stroke-linecap="round"/>
</svg>
