<svg width="45" height="44" viewBox="0 0 45 44" fill="none" xmlns="http://www.w3.org/2000/svg">
<path d="M11.4965 22V32.4207C11.4965 35.7408 11.4965 37.4018 12.569 38.434C13.7881 39.6055 18.1276 40.2948 22.4873 40.3315C26.7333 40.3682 30.994 39.787 32.4056 38.434C33.4763 37.4018 33.4763 35.7408 33.4763 32.4207V22" stroke="#B64F1D" stroke-width="2.3" stroke-linecap="round" stroke-linejoin="round"/>
<path d="M10.9904 25.707C9.40455 25.1314 6.42172 24.64 5.07605 23.2889C3.22438 21.4317 4.42155 18.92 6.69122 14.1882C7.71238 12.0579 9.66855 10.4904 11.9474 9.87252C12.2569 9.7888 12.5254 9.59525 12.7027 9.32802L15.0549 5.66135C15.122 5.5594 15.2109 5.47362 15.3152 5.41019C16.3749 4.77035 19.002 3.66669 22.4872 3.66669C25.9724 3.66669 28.4272 4.77035 29.4851 5.40835C29.5897 5.47284 29.6787 5.55991 29.7454 5.66319L32.1654 9.29319C32.3427 9.56041 32.6112 9.75396 32.9207 9.83769C35.1996 10.4574 37.0659 11.825 38.0889 13.9554C40.6372 18.5937 41.7702 21.3969 39.9167 23.254C38.5729 24.6034 35.5479 25.1387 33.9621 25.7125" stroke="#B64F1D" stroke-width="2.3" stroke-linecap="round" stroke-linejoin="round"/>
<path d="M12.4186 10.0834L20.1809 16.1206C21.2919 16.9841 21.8474 17.4167 22.5019 17.4167C23.1564 17.4167 23.7119 16.9841 24.8247 16.1206L32.5834 10.0834M17.9186 5.50006L20.6686 16.5001M27.0852 5.50006L24.3352 16.5001" stroke="#B64F1D" stroke-width="2.3" stroke-linecap="round" stroke-linejoin="round"/>
</svg>
